PathFileType	4	(X/Y/Z)	./resultDataOpenSim/trcMotMarkerGrf/sub10/qtm-01-08.trc
DataRate	CameraRate	NumFrames	NumMarkers	Units	OrigDataRate	OrigDataStartFrame	OrigNumFrames
250.000000	250.000000	7	24	m	250.000000	381	435
Frame#	Time	L.Toe.Tip			R.Toe.Tip			L.Ankle.Lat			R.Ankle.Lat			L.Ankle.Med			R.Ankle.Med			L.Heel			R.Heel			L.Knee.Lat			R.Knee.Lat			L.Knee.Med			R.Knee.Med			L.Thigh.Upper			R.Thigh.Upper			L.ASIS			R.ASIS			V.Sacral			L.Acromium			R.Acromium			C7			L.Elbow			R.Elbow			L.Wrist.Lat			R.Wrist.Lat
		X1	Y1	Z1	X2	Y2	Z2	X3	Y3	Z3	X4	Y4	Z4	X5	Y5	Z5	X6	Y6	Z6	X7	Y7	Z7	X8	Y8	Z8	X9	Y9	Z9	X10	Y10	Z10	X11	Y11	Z11	X12	Y12	Z12	X13	Y13	Z13	X14	Y14	Z14	X15	Y15	Z15	X16	Y16	Z16	X17	Y17	Z17	X18	Y18	Z18	X19	Y19	Z19	X20	Y20	Z20	X21	Y21	Z21	X22	Y22	Z22	X23	Y23	Z23	X24	Y24	Z24

381	1.52	1.5586868	0.13605855	-0.17678359	0.87011896	0.037999423	-0.016663292	1.4307472	0.09308511	-0.19818911	0.73182147	0.070340527	0.012843537	1.4372735	0.12325803	-0.11817443	0.75959032	0.093039755	-0.070486826	1.3921301	0.038030491	-0.14933751	0.67836183	0.054452449	-0.035186585	1.267237	0.45070503	-0.2176294	0.90815818	0.4333659	0.05897891	1.2936063	0.43066536	-0.097910691	0.93548312	0.43305684	-0.067563189	1.1253384	0.80618035	-0.25908518	0.99979035	0.83736403	0.11120807	1.1570466	0.91937617	-0.18009473	1.0969726	0.92121842	0.064464332	0.93480502	0.9202405	-0.11134111	1.0331836	1.3907328	-0.22709285	1.0353111	1.3759861	0.099837206	0.94698725	1.4086105	-0.067123843	0.91163548	1.0723548	-0.27343788	1.1184493	1.0235629	0.14290661	0.96108812	0.85952587	-0.37888978	1.3676697	0.99233229	0.14694902
382	1.524	1.5690614	0.13730895	-0.17655099	0.87018855	0.037991915	-0.016645827	1.4416438	0.093592645	-0.19882989	0.7323104	0.07137912	0.012959515	1.4479314	0.12347171	-0.11858886	0.76020929	0.093821796	-0.070408989	1.4032761	0.038037346	-0.15051329	0.6786577	0.055986306	-0.035003507	1.2760563	0.45035375	-0.21766102	0.91202083	0.43275695	0.058851655	1.3012375	0.42965314	-0.097782016	0.93988725	0.43210829	-0.067598691	1.1333531	0.80436693	-0.25883044	1.0045562	0.83609206	0.11049509	1.1642663	0.91763001	-0.17935327	1.1024387	0.91972431	0.06503521	0.94200878	0.91828654	-0.1127566	1.0397755	1.3892055	-0.22740059	1.0418121	1.3744559	0.099488725	0.95340059	1.4071315	-0.067499713	0.91715396	1.0716256	-0.27409464	1.127494	1.02279	0.1428088	0.96474312	0.85838515	-0.37961822	1.3769193	0.99462271	0.14586145
383	1.528	1.5789983	0.13787532	-0.17649571	0.87026924	0.037989751	-0.016621774	1.4518816	0.093860357	-0.19936183	0.73286405	0.072494169	0.013103362	1.4577931	0.1230317	-0.11927778	0.7608689	0.094671511	-0.070315982	1.4137023	0.037886277	-0.1515407	0.67899668	0.05762673	-0.034801601	1.2848406	0.45005973	-0.21768754	0.91599673	0.43214331	0.058702482	1.3089218	0.42875362	-0.097688989	0.94433763	0.43116907	-0.067658109	1.1413837	0.80265376	-0.25861269	1.0095076	0.83485256	0.10985177	1.1715011	0.91589529	-0.17866754	1.1079521	0.91826419	0.065631462	0.9490291	0.91649193	-0.11412599	1.0463859	1.3877162	-0.22773348	1.0483088	1.3729804	0.099116617	0.95984575	1.4056751	-0.067882955	0.92275536	1.0708064	-0.27456481	1.1363699	1.0219668	0.14285481	0.96850447	0.85726717	-0.38032734	1.3860356	0.99685449	0.14475534
384	1.532	1.588463	0.13788066	-0.17658017	0.87036055	0.037993431	-0.016599012	1.4614559	0.093879988	-0.19978564	0.73347652	0.073696725	0.013277457	1.466778	0.12211206	-0.12015777	0.76157332	0.09559142	-0.07020415	1.4233865	0.037553636	-0.15243056	0.67939121	0.059377426	-0.034583359	1.2935925	0.44983616	-0.21770363	0.92008529	0.4315208	0.058528779	1.3166847	0.4279792	-0.097626873	0.94883547	0.43023522	-0.067732753	1.1493973	0.80109312	-0.25843076	1.0146453	0.83364945	0.10926196	1.1787513	0.91417668	-0.17803333	1.1135101	0.91684322	0.066258361	0.95578223	0.91489859	-0.11546997	1.0530269	1.3862749	-0.22809855	1.0548031	1.3715477	0.098719248	0.96632513	1.40424	-0.068273771	0.9284652	1.0698456	-0.27484818	1.145122	1.0211598	0.1429318	0.9723713	0.85617483	-0.38101686	1.3950194	0.99901932	0.14363167
385	1.536	1.5974026	0.13748091	-0.17661406	0.8704636	0.038004232	-0.016585349	1.4703628	0.093645758	-0.20010212	0.73413721	0.07500132	0.013477074	1.4750454	0.12103127	-0.12096098	0.76232501	0.096585518	-0.070065407	1.432323	0.037030435	-0.1531696	0.67984868	0.061248636	-0.034344547	1.3023177	0.44970214	-0.21770653	0.92429233	0.43089029	0.0583415	1.3245428	0.42732484	-0.097598058	0.95338797	0.42930745	-0.067813954	1.1573639	0.79973618	-0.25828478	1.0199399	0.8324723	0.10868155	1.1860183	0.91248591	-0.17742566	1.1191271	0.91546591	0.066905717	0.96227134	0.91351609	-0.11683322	1.0597018	1.3848804	-0.2285031	1.0613043	1.3701494	0.098289534	0.97283143	1.4028287	-0.06869595	0.93428216	1.0687866	-0.2750446	1.1537639	1.0204093	0.14297543	0.97634678	0.85510872	-0.38168776	1.4038656	1.0011137	0.14249037
386	1.54	1.605783	0.13677296	-0.17639914	0.87058158	0.038023665	-0.016578102	1.4786084	0.093158457	-0.20031655	0.73484558	0.076417232	0.013692477	1.4828246	0.11997579	-0.12148101	0.76313033	0.097658675	-0.069896692	1.4405266	0.036323092	-0.1537305	0.68036979	0.063252731	-0.034079237	1.3110154	0.44966628	-0.21769889	0.92862376	0.43025681	0.058153963	1.3325067	0.42677801	-0.097605772	0.95800546	0.4283863	-0.067901748	1.1652622	0.79862195	-0.25817867	1.025376	0.83131216	0.10808329	1.1933102	0.91084075	-0.17682216	1.1248397	0.91412907	0.067542714	0.96863305	0.91232097	-0.1182184	1.0664013	1.3835253	-0.2289516	1.0678178	1.3687897	0.097826118	0.97935547	1.4014448	-0.069174248	0.94017566	1.067735	-0.27524373	1.1622843	1.0197349	0.14296618	0.98044064	0.85406831	-0.38234164	1.4125645	1.0031414	0.14133298
387	1.544	1.6135555	0.13587798	-0.17593519	0.87072044	0.038052243	-0.016567639	1.486213	0.092422035	-0.20043671	0.73561686	0.077940378	0.013917863	1.4902338	0.11894375	-0.12168126	0.76400464	0.098814541	-0.069702514	1.4480199	0.035448087	-0.15409639	0.68095788	0.065397502	-0.033784474	1.3196833	0.44971894	-0.21768282	0.93307793	0.42962339	0.057965332	1.3405823	0.42633239	-0.097645373	0.9627014	0.42747006	-0.06799924	1.1730746	0.79776597	-0.25811792	1.0309621	0.83016592	0.1074608	1.2006414	0.90926558	-0.17622202	1.130698	0.91281841	0.068126589	0.97513254	0.91125799	-0.11957233	1.0731196	1.38221	-0.22944006	1.0743366	1.3674867	0.09734002	0.98589261	1.4000923	-0.069718849	0.94612018	1.0667918	-0.27547567	1.1706803	1.0191418	0.14289495	0.98465865	0.85305551	-0.38298262	1.4211088	1.0051037	0.14015921
